<svg width="30" height="30" viewBox="0 0 30 30" fill="none" xmlns="http://www.w3.org/2000/svg">
<path d="M21.25 4.375H8.75C5 4.375 2.5 6.25 2.5 10.625V19.375C2.5 23.75 5 25.625 8.75 25.625H21.25C25 25.625 27.5 23.75 27.5 19.375V10.625C27.5 6.25 25 4.375 21.25 4.375ZM7.8125 18.125C7.8125 18.6375 7.3875 19.0625 6.875 19.0625C6.3625 19.0625 5.9375 18.6375 5.9375 18.125V11.875C5.9375 11.3625 6.3625 10.9375 6.875 10.9375C7.3875 10.9375 7.8125 11.3625 7.8125 11.875V18.125ZM15 18.75C12.925 18.75 11.25 17.075 11.25 15C11.25 12.925 12.925 11.25 15 11.25C17.075 11.25 18.75 12.925 18.75 15C18.75 17.075 17.075 18.75 15 18.75ZM24.0625 18.125C24.0625 18.6375 23.6375 19.0625 23.125 19.0625C22.6125 19.0625 22.1875 18.6375 22.1875 18.125V11.875C22.1875 11.3625 22.6125 10.9375 23.125 10.9375C23.6375 10.9375 24.0625 11.3625 24.0625 11.875V18.125Z" fill="#00A078" fill-opacity="0.94"/>
</svg>
