<svg width="46" height="46" viewBox="0 0 46 46" fill="none" xmlns="http://www.w3.org/2000/svg">
<path d="M30.7789 5H15.555C8.94223 5 5 8.94026 5 15.5497V30.7479C5 37.3755 8.94223 41.3158 15.555 41.3158H30.7607C37.3735 41.3158 41.3157 37.3755 41.3157 30.7661V15.5497C41.3339 8.94026 37.3917 5 30.7789 5ZM30.4337 24.5197H24.5295V30.4211C24.5295 31.1655 23.9118 31.7829 23.1669 31.7829C22.4221 31.7829 21.8044 31.1655 21.8044 30.4211V24.5197H15.9002C15.1553 24.5197 14.5376 23.9024 14.5376 23.1579C14.5376 22.4134 15.1553 21.7961 15.9002 21.7961H21.8044V15.8947C21.8044 15.1503 22.4221 14.5329 23.1669 14.5329C23.9118 14.5329 24.5295 15.1503 24.5295 15.8947V21.7961H30.4337C31.1786 21.7961 31.7962 22.4134 31.7962 23.1579C31.7962 23.9024 31.1786 24.5197 30.4337 24.5197Z" fill="white"/>
</svg>
